# Blender v3.0.0 OBJ File: 'ponte.blend'
# www.blender.org
mtllib ponte.mtl
o Cube
v 4.480218 0.401554 0.990808
v 4.480218 -0.401554 0.990808
v -4.480218 0.401554 0.990808
v -4.480218 -0.401554 -4.511190
v 4.480218 0.401554 -4.511190
v -4.480218 0.401554 -4.511190
v 4.480218 -0.401554 -4.511190
v -4.480218 -0.401554 -5.017882
v 4.480218 0.401554 -5.017882
v -4.480218 0.401554 1.563279
v 4.480218 -0.401554 -5.017882
v -4.480218 0.401554 -5.017882
v -4.480219 -0.401554 -10.580723
v 4.480218 -0.401554 1.563278
v -4.480219 0.401554 -10.580723
v 4.480218 -0.401554 -10.580723
v 4.480218 0.401554 -10.580723
v -4.480219 0.401554 -11.038380
v -4.480219 -0.401554 -11.038380
v -4.480218 -0.401554 1.563279
v 4.480218 0.401554 -11.038380
v 4.480218 -0.401554 -11.038380
v -4.480218 0.401554 9.921351
v 4.480218 0.401554 1.563279
v -4.480218 -0.401554 9.921351
v 4.480219 0.401554 9.921351
v 4.480219 -0.401554 9.921351
v -4.480218 -0.401554 0.990808
v -4.480218 0.401554 6.660064
v 4.480219 -0.401554 6.660064
v 4.480219 0.401554 6.660064
v -4.480218 -0.401554 6.660064
v 4.480219 0.401554 7.247096
v -4.480218 -0.401554 7.247096
v -4.480218 0.401554 7.247096
v 4.480219 -0.401554 7.247096
v 4.480218 0.401554 -13.840750
v 4.480218 -0.401554 -13.840750
v -4.480219 0.401554 -13.840750
v -4.480219 -0.401554 -13.840750
v -5.205306 0.401554 -4.511190
v -5.205306 -0.401554 -4.511190
v -5.205306 -0.401554 -5.017882
v -5.205306 0.401554 -5.017882
v -5.205306 0.401554 1.563279
v -5.205306 -0.401554 1.563279
v -5.205307 0.401554 -10.580723
v -5.205307 -0.401554 -10.580723
v -5.205307 -0.401554 -11.038380
v -5.205306 -0.401554 0.990808
v -5.205306 0.401554 0.990808
v -5.205307 0.401554 -11.038380
v -5.205306 0.401554 7.247096
v -5.205306 0.401554 6.660064
v -5.205306 -0.401554 6.660064
v -5.205306 -0.401554 7.247096
v 5.322888 0.401554 -4.511190
v 5.322888 -0.401554 -4.511190
v 5.322888 0.401554 -5.017882
v 5.322888 -0.401554 -5.017882
v 5.322888 0.401554 1.563279
v 5.322888 -0.401554 1.563278
v 5.322887 0.401554 -10.580723
v 5.322887 -0.401554 -10.580723
v 5.322887 0.401554 -11.038380
v 5.322888 0.401554 0.990808
v 5.322887 -0.401554 -11.038380
v 5.322888 -0.401554 0.990808
v 5.322888 -0.401554 7.247096
v 5.322888 -0.401554 6.660064
v 5.322888 0.401554 6.660064
v 5.322888 0.401554 7.247096
v 4.788925 6.068995 -4.872046
v 4.788925 6.068995 -4.657027
v -4.720335 6.068995 -4.643846
v -4.720335 6.068995 -4.885227
v 4.788924 6.068995 -10.916113
v 4.788924 6.068995 -10.702990
v 4.788925 6.068995 1.173524
v 4.788925 6.068995 1.380562
v -4.720335 6.068995 -10.695902
v -4.720335 6.068995 -10.923201
v -4.720335 6.068995 1.402778
v -4.720335 6.068995 1.151309
v -4.720334 6.068995 7.079154
v -4.720334 6.068995 6.828007
v 4.788925 6.068995 6.842382
v 4.788925 6.068995 7.064778
v -4.965190 6.068995 -4.643846
v -4.965190 6.068995 -4.885227
v -4.965191 6.068995 -10.695902
v -4.965191 6.068995 -10.923201
v -4.965190 6.068995 1.402778
v -4.965190 6.068995 1.151309
v -4.965190 6.068995 7.079154
v -4.965190 6.068995 6.828007
v 5.014182 6.068995 -4.872046
v 5.014182 6.068995 -4.657027
v 5.014182 6.068995 -10.916113
v 5.014182 6.068995 -10.702990
v 5.014182 6.068995 1.173524
v 5.014182 6.068995 1.380562
v 5.014183 6.068995 6.842382
v 5.014183 6.068995 7.064778
v -4.480218 -1.953633 -5.017882
v -4.480218 -1.953633 -4.511190
v 4.480218 -1.953633 -4.511190
v 4.480218 -1.953633 -5.017882
v -4.480219 -1.953633 -11.038380
v -4.480219 -1.953633 -10.580723
v -4.480218 -1.953633 0.990808
v -4.480218 -1.953633 1.563279
v 4.480218 -1.953633 -10.580723
v 4.480218 -1.953633 -11.038380
v 4.480218 -1.953633 1.563278
v 4.480218 -1.953633 0.990808
v 4.480219 -1.953633 7.247096
v 4.480219 -1.953633 6.660064
v -4.480218 -1.953633 6.660064
v -4.480218 -1.953633 7.247096
v -5.205306 -1.953633 -5.017882
v -5.205306 -1.953633 -4.511190
v -5.205307 -1.953633 -11.038380
v -5.205307 -1.953633 -10.580723
v -5.205306 -1.953633 0.990808
v -5.205306 -1.953633 1.563279
v -5.205306 -1.953633 6.660064
v -5.205306 -1.953633 7.247096
v 5.322888 -1.953633 -4.511190
v 5.322888 -1.953633 -5.017882
v 5.322887 -1.953633 -10.580723
v 5.322887 -1.953633 -11.038380
v 5.322888 -1.953633 1.563278
v 5.322888 -1.953633 0.990808
v 5.322888 -1.953633 7.247096
v 5.322888 -1.953633 6.660064
v 5.322888 -0.444238 -5.017882
v 5.322888 -0.401554 -4.992311
v 5.322888 -0.445794 0.990808
v 5.322888 -0.401554 1.020696
v 4.480219 -1.926219 7.247096
v -5.205307 -1.953633 -10.932299
v -4.480219 -1.953633 -10.979164
v -4.584758 -1.953633 -10.972397
v -4.720335 6.068995 -4.648291
vt 0.416089 0.250000
vt 0.480304 0.250000
vt 0.480304 0.500000
vt 0.125000 0.541089
vt 0.375000 0.541089
vt 0.375000 0.605304
vt 0.556837 0.250000
vt 0.563221 0.250000
vt 0.563221 0.500000
vt 0.375000 0.250000
vt 0.380766 0.250000
vt 0.380766 0.250000
vt 0.380766 0.000000
vt 0.436779 0.000000
vt 0.375000 0.505766
vt 0.625000 0.561779
vt 0.375000 0.561779
vt 0.375000 0.000000
vt 0.619234 0.250000
vt 0.619234 0.500000
vt 0.625000 0.568163
vt 0.375000 0.568163
vt 0.625000 0.568163
vt 0.375000 0.612517
vt 0.375000 0.612517
vt 0.375000 0.612517
vt 0.125000 0.688221
vt 0.375000 0.744234
vt 0.125000 0.744234
vt 0.443163 0.000000
vt 0.512483 0.000000
vt 0.443163 0.250000
vt 0.487517 0.250000
vt 0.487517 0.500000
vt 0.125000 0.612517
vt 0.375000 0.568163
vt 0.625000 0.637483
vt 0.375000 0.637483
vt 0.625000 0.250000
vt 0.625000 0.500000
vt 0.556837 0.500000
vt 0.375000 0.681837
vt 0.125000 0.681837
vt 0.375000 0.716307
vt 0.625000 0.716307
vt 0.625000 0.750000
vt 0.375000 0.250000
vt 0.375000 0.000000
vt 0.436779 0.250000
vt 0.556837 0.500000
vt 0.125000 0.744234
vt 0.625000 0.500000
vt 0.875000 0.750000
vt 0.625000 0.750000
vt 0.375000 0.644696
vt 0.625000 0.708911
vt 0.375000 0.708911
vt 0.125000 0.605304
vt 0.125000 0.612517
vt 0.125000 0.605304
vt 0.408693 0.250000
vt 0.416089 0.500000
vt 0.375000 0.250000
vt 0.408693 0.500000
vt 0.125000 0.500000
vt 0.375000 0.500000
vt 0.375000 0.533693
vt 0.125000 0.612517
vt 0.125000 0.612517
vt 0.375000 0.750000
vt 0.625000 0.750000
vt 0.625000 1.000000
vt 0.125000 0.750000
vt 0.375000 0.750000
vt 0.125000 0.750000
vt 0.625000 0.500000
vt 0.625000 0.500000
vt 0.375000 0.500000
vt 0.375000 0.500000
vt 0.125000 0.681837
vt 0.375000 0.681837
vt 0.125000 0.688221
vt 0.375000 0.605304
vt 0.375000 0.744234
vt 0.125000 0.750000
vt 0.125000 0.533693
vt 0.375000 0.533693
vt 0.125000 0.541089
vt 0.375000 0.688221
vt 0.375000 0.688221
vt 0.375000 0.505766
vt 0.375000 0.505766
vt 0.125000 0.750000
vt 0.625000 0.500000
vt 0.625000 0.500000
vt 0.625000 0.500000
vt 0.125000 0.744234
vt 0.125000 0.744234
vt 0.375000 0.750000
vt 0.375000 0.750000
vt 0.125000 0.605304
vt 0.125000 0.533693
vt 0.375000 0.000000
vt 0.380766 0.000000
vt 0.375000 0.541089
vt 0.625000 0.561779
vt 0.625000 0.568163
vt 0.375000 0.637483
vt 0.625000 0.637483
vt 0.625000 0.644696
vt 0.375000 0.637860
vt 0.375000 0.500000
vt 0.625000 0.505766
vt 0.375000 0.561779
vt 0.375000 0.562101
vt 0.375000 0.708911
vt 0.625000 0.708911
vt 0.625000 0.716307
vt 0.375000 0.500000
vt 0.625000 0.644696
vt 0.375000 0.644696
vt 0.625000 0.716307
vt 0.487517 0.250000
vt 0.375000 0.716307
vt 0.375000 0.744234
vt 0.625000 0.561779
vt 0.625000 0.505766
vt 0.443163 0.000000
vt 0.443046 0.000000
vt 0.436779 0.000000
vt 0.443163 0.000000
vt 0.512483 0.250000
vt 0.519696 0.250000
vt 0.512483 0.250000
vt 0.519696 0.000000
vt 0.512483 0.000000
vt 0.519696 0.000000
vt 0.375000 0.000000
vt 0.380766 0.000000
vt 0.591307 0.000000
vt 0.583911 0.000000
vt 0.591307 0.000000
vt 0.436779 0.250000
vt 0.443163 0.250000
vt 0.436779 0.250000
vt 0.375000 0.250000
vt 0.375000 0.250000
vt 0.583911 0.250000
vt 0.591307 0.250000
vt 0.583911 0.250000
vt 0.436779 0.000000
vt 0.375000 0.688221
vt 0.512483 0.250000
vt 0.625000 0.505766
vt 0.625000 0.505766
vt 0.375000 0.681837
vt 0.375000 0.744234
vt 0.583911 0.250000
vt 0.375000 0.605304
vt 0.625000 0.644696
vt 0.375000 0.533693
vt 0.625000 0.637483
vt 0.519696 0.000000
vt 0.512483 0.000000
vt 0.375000 0.605304
vt 0.625000 0.568163
vt 0.375000 0.750000
vt 0.591307 0.000000
vt 0.583911 0.000000
vt 0.375000 0.533693
vt 0.625000 0.708911
vt 0.375000 0.681837
vt 0.375000 0.541089
vt 0.408693 0.500000
vt 0.416089 0.500000
vt 0.408693 0.500000
vt 0.416089 0.250000
vt 0.408693 0.250000
vt 0.416089 0.250000
vt 0.563221 0.500000
vt 0.556837 0.500000
vt 0.625000 0.250000
vt 0.624169 0.250000
vt 0.623663 0.250000
vt 0.625000 0.250000
vt 0.563221 0.250000
vt 0.556837 0.250000
vt 0.563221 0.250000
vt 0.480304 0.250000
vt 0.487517 0.250000
vt 0.480304 0.500000
vt 0.487517 0.500000
vt 0.480304 0.500000
vt 0.619234 0.500000
vt 0.625000 0.500000
vt 0.619234 0.500000
vt 0.375000 0.561779
vt 0.375000 0.561779
vt 0.375000 0.568163
vt 0.375000 0.708911
vt 0.125000 0.688221
vt 0.125000 0.688221
vt 0.375000 0.716307
vt 0.125000 0.750000
vt 0.125000 0.681837
vt 0.125000 0.681837
vt 0.375000 0.500000
vt 0.125000 0.541089
vt 0.125000 0.533693
vt 0.125000 0.605304
vt 0.375000 0.637483
vt 0.375000 0.644696
vt 0.125000 0.533693
vt 0.624254 0.250000
vt 0.375000 0.637483
vt 0.125000 0.541089
vt 0.375000 0.708911
vt 0.408693 0.500000
vt 0.591307 0.250000
vt 0.875000 0.500000
vt 0.519696 0.250000
vt 0.375000 0.750000
vt 0.625000 0.500000
vt 0.375000 1.000000
vt 0.375000 0.500000
vt 0.625000 0.250000
vt 0.625000 0.500000
vt 0.563221 0.500000
vt 0.487517 0.500000
vt 0.416089 0.500000
vt 0.408693 0.250000
vt 0.556837 0.250000
vt 0.619234 0.250000
vt 0.619234 0.250000
vt 0.480304 0.250000
vt 0.375000 0.561779
vt 0.375000 0.637483
vt 0.375000 0.505766
vt 0.375000 0.568163
vt 0.375000 0.644696
vt 0.375000 0.716307
vt 0.375000 0.716307
vt 0.625000 0.716307
vt 0.625000 0.644696
vt 0.625000 0.708911
vt 0.625000 0.637483
vt 0.625000 0.561779
vt 0.591307 0.250000
vt 0.519696 0.250000
vt 0.443163 0.250000
vt 0.380766 0.250000
vt 0.583911 0.000000
vt 0.375000 0.541089
vt 0.375000 0.612517
vt 0.375000 0.688221
vt 0.375000 0.750000
vt 0.125000 0.748663
vn 0.0000 -1.0000 0.0000
vn -1.0000 0.0000 0.0000
vn -0.9985 0.0544 0.0000
vn 0.0000 1.0000 0.0000
vn 1.0000 0.0000 -0.0000
vn 0.0000 0.0000 1.0000
vn 0.0000 0.0283 -0.9996
vn -0.0000 0.0000 -1.0000
vn 0.0000 0.0216 -0.9998
vn 0.9991 0.0423 0.0000
vn 0.9985 0.0544 0.0000
vn 0.0000 0.0203 0.9998
vn 0.0000 0.0257 -0.9997
vn 0.0000 0.0322 0.9995
vn 0.0000 0.0234 -0.9997
vn 0.0000 0.0216 0.9998
vn 0.0000 0.0234 0.9997
vn -0.9991 0.0423 0.0000
vn 0.0000 0.0322 -0.9995
vn 0.0000 0.0283 0.9996
vn 0.0000 0.0257 0.9997
vn 0.0000 0.0203 -0.9998
vn 0.0000 0.0296 0.9996
vn 0.0000 0.0296 -0.9996
usemtl Material
s off
f 32/1/1 20/2/1 14/3/1
f 32/4/2 29/5/2 10/6/2
f 4/7/1 8/8/1 11/9/1
f 21/10/3 17/11/3 78/12/3
f 15/13/4 12/14/4 17/11/4
f 16/15/5 9/16/5 11/17/5
f 18/18/4 15/13/4 21/10/4
f 8/8/1 13/19/1 16/20/1
f 5/21/6 58/22/6 57/23/6
f 3/24/7 51/25/7 84/26/7
f 8/27/2 15/28/2 13/29/2
f 6/30/4 3/31/4 5/32/4
f 20/2/1 28/33/1 2/34/1
f 3/24/8 28/35/8 51/25/8
f 7/36/5 1/37/5 2/38/5
f 13/19/1 19/39/1 22/40/1
f 28/33/1 4/7/1 7/41/1
f 28/35/2 6/42/2 4/43/2
f 36/44/5 33/45/5 26/46/5
f 18/18/4 37/47/4 39/48/4
f 12/14/4 6/30/4 9/49/4
f 7/41/2 11/9/2 107/50/2
f 13/29/6 15/28/6 48/51/6
f 27/52/6 23/53/6 25/54/6
f 14/55/5 31/56/5 30/57/5
f 46/58/2 125/59/2 126/60/2
f 34/61/1 32/1/1 30/62/1
f 25/63/1 34/61/1 36/64/1
f 25/65/2 23/66/2 35/67/2
f 50/68/8 111/69/8 125/59/8
f 40/70/8 39/71/8 37/72/8
f 19/73/2 39/74/2 40/75/2
f 22/40/1 19/39/1 38/76/1
f 21/77/5 22/78/5 38/79/5
f 42/80/2 41/81/2 43/82/2
f 46/58/2 45/83/2 50/68/2
f 48/51/2 47/84/2 49/85/2
f 56/86/2 53/87/2 55/88/2
f 12/89/8 8/27/8 44/90/8
f 64/91/6 16/15/6 131/92/6
f 48/51/2 49/85/2 123/93/2
f 65/94/9 77/95/9 99/96/9
f 13/29/6 124/97/6 110/98/6
f 18/99/8 19/73/8 52/100/8
f 20/101/6 10/6/6 46/58/6
f 34/102/6 35/67/6 56/86/6
f 15/13/10 82/103/10 81/104/10
f 29/5/8 32/4/8 54/105/8
f 57/23/11 59/106/11 98/107/11
f 4/43/6 6/42/6 42/80/6
f 68/108/5 66/109/5 61/110/5 140/111/5
f 67/112/5 65/94/5 63/113/5
f 60/114/5 59/106/5 57/23/5 138/115/5
f 70/116/5 71/117/5 72/118/5
f 2/38/8 66/109/8 68/108/8
f 22/78/8 67/112/8 114/119/8
f 30/57/8 71/117/8 70/116/8
f 24/120/6 62/121/6 61/110/6
f 11/17/8 59/106/8 60/114/8
f 72/118/11 71/117/11 104/122/11
f 28/33/5 20/2/5 111/123/5
f 22/78/8 65/94/8 67/112/8
f 33/45/6 69/124/6 72/118/6
f 47/84/12 15/28/12 81/125/12
f 59/106/13 9/16/13 73/126/13
f 17/127/6 64/91/6 63/113/6
f 75/128/4 145/129/4 90/130/4 89/131/4
f 79/132/4 80/133/4 101/134/4
f 83/135/4 94/136/4 93/137/4
f 81/104/4 92/138/4 91/139/4
f 85/140/4 96/141/4 95/142/4
f 73/143/4 74/144/4 97/145/4
f 77/146/4 78/12/4 99/147/4
f 87/148/4 88/149/4 103/150/4
f 6/30/10 76/151/10 145/129/10 75/128/10
f 33/45/14 72/118/14 104/122/14
f 12/89/15 44/90/15 76/152/15
f 1/153/3 80/133/3 79/132/3
f 17/127/16 100/154/16 78/155/16
f 9/49/3 5/32/3 74/144/3
f 41/81/17 6/42/17 75/156/17
f 52/100/18 47/84/18 91/157/18
f 31/158/3 88/149/3 87/148/3
f 51/25/18 45/83/18 93/159/18
f 63/113/11 65/94/11 100/154/11
f 24/120/14 61/110/14 102/160/14
f 54/105/18 53/87/18 95/161/18
f 61/110/11 66/109/11 102/160/11
f 66/109/19 1/37/19 79/162/19
f 10/163/10 84/164/10 83/135/10
f 45/83/20 10/6/20 83/165/20
f 5/21/21 98/107/21 74/166/21
f 18/99/22 52/100/22 82/167/22
f 35/168/10 86/169/10 85/140/10
f 53/87/23 35/67/23 85/170/23
f 71/117/19 31/56/19 87/171/19
f 44/90/18 41/81/18 89/172/18
f 29/5/24 54/105/24 86/173/24
f 117/174/1 136/175/1 135/176/1
f 119/177/1 128/178/1 127/179/1
f 107/50/1 130/180/1 129/181/1
f 109/182/1 144/183/1 142/184/1 123/185/1
f 105/186/1 122/187/1 121/188/1
f 111/123/1 126/189/1 125/190/1
f 115/191/1 134/192/1 133/193/1
f 113/194/1 132/195/1 131/196/1
f 11/17/8 60/114/8 108/197/8
f 60/114/5 138/115/5 137/198/5
f 8/8/5 4/7/5 105/186/5
f 58/22/6 7/36/6 129/199/6
f 30/57/8 70/116/8 118/200/8
f 43/82/8 105/201/8 121/202/8
f 69/124/6 36/44/6 135/203/6
f 49/85/8 109/204/8 123/93/8
f 32/1/5 34/61/5 119/177/5
f 14/3/2 2/34/2 115/191/2
f 4/43/6 122/205/6 106/206/6
f 16/20/2 22/40/2 113/194/2
f 67/112/5 64/91/5 132/207/5
f 56/86/2 127/208/2 128/209/2
f 42/80/2 121/202/2 122/205/2
f 20/101/6 126/60/6 112/210/6
f 2/38/8 68/108/8 116/211/8
f 62/121/6 14/55/6 133/212/6
f 34/102/6 128/209/6 120/213/6
f 19/39/5 13/19/5 143/214/5 109/182/5
f 68/108/5 140/111/5 139/215/5
f 55/88/8 119/216/8 127/208/8
f 70/116/5 69/124/5 136/217/5
f 36/64/2 30/62/2 141/218/2
f 1/153/4 3/31/4 10/163/4
f 29/5/4 31/56/4 24/120/4
f 35/168/4 31/158/4 29/5/4
f 33/219/4 35/168/4 23/66/4
f 23/66/4 26/220/4 33/219/4
f 31/158/4 35/168/4 33/219/4
f 10/163/4 24/221/4 1/153/4
f 24/120/4 10/163/4 29/5/4
f 5/32/4 3/31/4 1/153/4
f 9/49/4 6/30/4 5/32/4
f 17/11/4 12/14/4 9/49/4
f 21/10/4 15/13/4 17/11/4
f 37/47/4 18/18/4 21/10/4
f 26/46/5 27/222/5 36/44/5
f 31/56/5 14/55/5 24/120/5
f 1/37/5 7/36/5 5/21/5
f 9/16/5 16/15/5 17/127/5
f 38/79/5 37/223/5 21/77/5
f 37/72/8 38/224/8 40/70/8
f 39/74/2 19/73/2 18/99/2
f 15/28/2 8/27/2 12/89/2
f 6/42/2 28/35/2 3/24/2
f 10/6/2 20/101/2 32/4/2
f 35/67/2 34/102/2 25/65/2
f 23/53/6 27/52/6 26/220/6
f 36/64/1 27/225/1 25/63/1
f 30/62/1 36/64/1 34/61/1
f 14/3/1 30/62/1 32/1/1
f 2/34/1 14/3/1 20/2/1
f 7/41/1 2/34/1 28/33/1
f 11/9/1 7/41/1 4/7/1
f 16/20/1 11/9/1 8/8/1
f 22/40/1 16/20/1 13/19/1
f 38/76/1 19/39/1 40/226/1
f 132/195/1 113/194/1 114/227/1
f 130/180/1 107/50/1 108/228/1
f 134/192/1 115/191/1 116/229/1
f 136/175/1 117/174/1 118/230/1
f 128/178/1 119/177/1 120/231/1
f 122/187/1 105/186/1 106/232/1
f 124/233/1 144/183/1 143/214/1 110/234/1
f 126/189/1 111/123/1 112/235/1
f 114/119/8 67/112/8 132/207/8
f 108/197/8 60/114/8 137/198/8 130/236/8
f 116/211/8 68/108/8 139/215/8 134/237/8
f 118/200/8 70/116/8 136/217/8
f 65/94/8 22/78/8 21/77/8
f 59/106/8 11/17/8 9/16/8
f 66/109/8 2/38/8 1/37/8
f 71/117/8 30/57/8 31/56/8
f 136/217/5 69/124/5 135/203/5
f 134/237/5 62/121/5 133/212/5
f 130/236/5 58/22/5 129/199/5
f 132/207/5 64/91/5 131/92/5
f 63/113/5 64/91/5 67/112/5
f 138/115/5 57/23/5 58/22/5
f 137/198/5 138/115/5 58/22/5 130/236/5
f 139/215/5 140/111/5 62/121/5 134/237/5
f 140/111/5 61/110/5 62/121/5
f 72/118/5 69/124/5 70/116/5
f 131/92/6 16/15/6 113/238/6
f 129/199/6 7/36/6 107/239/6
f 133/212/6 14/55/6 115/240/6
f 135/203/6 141/241/6 117/242/6
f 64/91/6 17/127/6 16/15/6
f 58/22/6 5/21/6 7/36/6
f 62/121/6 24/120/6 14/55/6
f 69/124/6 33/45/6 36/44/6
f 141/241/6 135/203/6 36/44/6
f 141/218/2 30/62/2 118/230/2 117/174/2
f 115/191/2 2/34/2 116/229/2
f 113/194/2 22/40/2 114/227/2
f 107/50/2 11/9/2 108/228/2
f 77/95/9 65/94/9 21/77/9
f 78/12/3 77/146/3 21/10/3
f 74/144/3 73/143/3 9/49/3
f 80/133/3 1/153/3 24/221/3
f 88/149/3 31/158/3 33/219/3
f 104/122/14 88/243/14 33/45/14
f 102/160/14 80/244/14 24/120/14
f 98/107/21 5/21/21 57/23/21
f 100/154/16 17/127/16 63/113/16
f 104/122/11 71/117/11 103/245/11
f 102/160/11 66/109/11 101/246/11
f 98/107/11 59/106/11 97/247/11
f 100/154/11 65/94/11 99/96/11
f 73/126/13 97/247/13 59/106/13
f 79/162/19 101/246/19 66/109/19
f 87/171/19 103/245/19 71/117/19
f 103/150/4 88/149/4 104/248/4
f 101/134/4 80/133/4 102/249/4
f 97/145/4 74/144/4 98/250/4
f 99/147/4 78/12/4 100/251/4
f 76/151/10 6/30/10 12/14/10
f 82/103/10 15/13/10 18/18/10
f 84/164/10 10/163/10 3/31/10
f 86/169/10 35/168/10 29/252/10
f 86/173/24 54/105/24 96/253/24
f 84/26/7 51/25/7 94/254/7
f 76/152/15 44/90/15 90/255/15
f 82/167/22 52/100/22 92/256/22
f 91/157/18 92/256/18 52/100/18
f 89/172/18 90/255/18 44/90/18
f 93/159/18 94/254/18 51/25/18
f 95/161/18 96/253/18 54/105/18
f 85/170/23 95/161/23 53/87/23
f 83/165/20 93/159/20 45/83/20
f 75/156/17 89/172/17 41/81/17
f 81/125/12 91/157/12 47/84/12
f 56/86/6 35/67/6 53/87/6
f 128/209/6 34/102/6 56/86/6
f 126/60/6 20/101/6 46/58/6
f 46/58/6 10/6/6 45/83/6
f 122/205/6 4/43/6 42/80/6
f 42/80/6 6/42/6 41/81/6
f 124/97/6 13/29/6 48/51/6
f 48/51/6 15/28/6 47/84/6
f 123/93/2 142/257/2 124/97/2 48/51/2
f 49/85/2 47/84/2 52/100/2
f 121/202/2 42/80/2 43/82/2
f 43/82/2 41/81/2 44/90/2
f 125/59/2 46/58/2 50/68/2
f 50/68/2 45/83/2 51/25/2
f 127/208/2 56/86/2 55/88/2
f 55/88/2 53/87/2 54/105/2
f 52/100/8 19/73/8 49/85/8
f 109/204/8 49/85/8 19/73/8
f 105/201/8 43/82/8 8/27/8
f 44/90/8 8/27/8 43/82/8
f 51/25/8 28/35/8 50/68/8
f 111/69/8 50/68/8 28/35/8
f 119/216/8 55/88/8 32/4/8
f 54/105/8 32/4/8 55/88/8
f 142/184/1 144/183/1 124/233/1
f 143/214/5 13/19/5 110/234/5
f 143/214/1 144/183/1 109/182/1
f 105/186/5 4/7/5 106/232/5
f 111/123/5 20/2/5 112/235/5
f 119/177/5 34/61/5 120/231/5
f 94/136/4 83/135/4 84/164/4
f 90/130/4 145/129/4 76/151/4
f 92/138/4 81/104/4 82/103/4
f 96/141/4 85/140/4 86/169/4
